<?xml version="1.0" encoding="utf-8"?>
<!-- Generator: Adobe Illustrator 16.0.0, SVG Export Plug-In . SVG Version: 6.00 Build 0)  -->
<!DOCTYPE svg PUBLIC "-//W3C//DTD SVG 1.1//EN" "http://www.w3.org/Graphics/SVG/1.1/DTD/svg11.dtd">
<svg version="1.1" id="Layer_1" focusable="false" xmlns="http://www.w3.org/2000/svg" xmlns:xlink="http://www.w3.org/1999/xlink"
	 x="0px" y="0px" width="612px" height="792px" viewBox="0 0 612 792" enable-background="new 0 0 612 792" xml:space="preserve">
<path fill="#585858" d="M603.633,298.94l-47.335-47.334c-11.235-11.236-29.404-11.236-40.521,0L229.5,537.884L96.342,404.606
	c-11.235-11.236-29.404-11.236-40.521,0L8.367,452.061c-11.236,11.235-11.236,29.404,0,40.641L209.18,693.633
	c11.235,11.236,29.404,11.236,40.521,0l353.813-354.052C614.749,328.226,614.749,310.057,603.633,298.94z M215.993,425.644
	c7.41,7.53,19.603,7.53,27.014,0L491.632,176.78c7.411-7.531,7.411-19.603,0-27.014l-54.028-54.147
	c-7.411-7.531-19.604-7.531-27.014,0L229.5,276.708l-66.221-66.34c-7.411-7.531-19.603-7.531-27.014,0l-54.147,54.147
	c-7.411,7.53-7.411,19.603,0,27.014L215.993,425.644L215.993,425.644z"/>
</svg>
