<?xml version="1.0" encoding="utf-8"?>
<!-- Generator: Adobe Illustrator 16.0.0, SVG Export Plug-In . SVG Version: 6.00 Build 0)  -->
<!DOCTYPE svg PUBLIC "-//W3C//DTD SVG 1.1//EN" "http://www.w3.org/Graphics/SVG/1.1/DTD/svg11.dtd">
<svg version="1.1" id="Layer_1" focusable="false" xmlns="http://www.w3.org/2000/svg" xmlns:xlink="http://www.w3.org/1999/xlink"
	 x="0px" y="0px" width="612px" height="792px" viewBox="0 0 612 792" enable-background="new 0 0 612 792" xml:space="preserve">
<path fill="#585858" d="M306,396c96.581,0,174.856-78.276,174.856-174.857c0-96.581-78.275-174.857-174.856-174.857
	s-174.857,78.276-174.857,174.857C131.143,317.724,209.419,396,306,396z M428.4,439.714h-22.813
	c-30.326,13.935-64.068,21.857-99.586,21.857c-35.519,0-69.123-7.923-99.587-21.857H183.6C82.238,439.714,0,521.952,0,623.314
	v56.828c0,36.201,29.37,65.571,65.571,65.571h480.856c36.201,0,65.572-29.37,65.572-65.571v-56.828
	C612,521.952,529.762,439.714,428.4,439.714z"/>
</svg>
